<?xml version="1.0" encoding="UTF-8" standalone="no"?>
<!-- Created with Inkscape (http://www.inkscape.org/) -->

<svg
   width="4.2333736mm"
   height="4.2330427mm"
   viewBox="0 0 4.2333736 4.2330427"
   version="1.1"
   id="svg1"
   xml:space="preserve"
   xmlns:inkscape="http://www.inkscape.org/namespaces/inkscape"
   xmlns:sodipodi="http://sodipodi.sourceforge.net/DTD/sodipodi-0.dtd"
   xmlns="http://www.w3.org/2000/svg"
   xmlns:svg="http://www.w3.org/2000/svg"><sodipodi:namedview
     id="namedview1"
     pagecolor="#ffffff"
     bordercolor="#000000"
     borderopacity="0.25"
     inkscape:showpageshadow="2"
     inkscape:pageopacity="0.0"
     inkscape:pagecheckerboard="0"
     inkscape:deskcolor="#d1d1d1"
     inkscape:document-units="mm" /><defs
     id="defs1" /><g
     inkscape:label="Layer 1"
     inkscape:groupmode="layer"
     id="layer1"
     transform="translate(-85.114214,-184.50648)"><path
       id="path3-9"
       style="fill:#000000;fill-opacity:0;stroke:#8099b4;stroke-width:0.20291;stroke-dasharray:none;stroke-opacity:1"
       d="m 85.215989,187.7427 c 0,0 1.031953,-0.94529 1.153785,-0.95504 0.102035,-0.008 0.861847,0.9387 0.976284,0.9274 0.114701,-0.0114 1.192926,-1.52733 1.320946,-1.52929 0.129309,-0.002 0.578032,0.85153 0.578032,0.85153 M 86.5594,185.58207 a 0.353092,0.35711687 0 0 1 -0.34059,0.36933 0.353092,0.35711687 0 0 1 -0.365165,-0.34447 0.353092,0.35711687 0 0 1 0.340589,-0.36933 0.353092,0.35711687 0 0 1 0.365166,0.34447 z m -0.561193,-0.97314 2.468357,-10e-4 c 0.432178,-6e-5 0.779872,0.35153 0.779575,0.78862 l -0.0019,2.45113 c -5.29e-4,0.43712 -0.348458,0.78917 -0.780642,0.78938 l -2.468356,0.001 c -0.432179,6e-5 -0.779869,-0.35151 -0.779571,-0.78863 l 0.0017,-2.45112 c 5.82e-4,-0.43711 0.348457,-0.78917 0.780635,-0.78938 z"
       inkscape:export-filename="file-input-icon.svg"
       inkscape:export-xdpi="60.625492"
       inkscape:export-ydpi="60.625492" /></g></svg>
